<?xml version="1.0" standalone="no"?>
<!DOCTYPE svg PUBLIC "-//W3C//DTD SVG 20010904//EN"
 "http://www.w3.org/TR/2001/REC-SVG-20010904/DTD/svg10.dtd">
<svg version="1.0" xmlns="http://www.w3.org/2000/svg"
 width="1920.000000pt" height="1920.000000pt" viewBox="0 0 1920.000000 1920.000000"
 preserveAspectRatio="xMidYMid meet">
<metadata>
Created by potrace 1.14, written by Peter Selinger 2001-2017
</metadata>
<g transform="translate(0.000000,1920.000000) scale(0.100000,-0.100000)"
fill="#000000" stroke="none">
<path d="M14411 12294 c-163 -15 -410 -50 -447 -65 -19 -6 -25 -15 -22 -32 3
-22 6 -22 175 -27 118 -3 176 -9 185 -17 6 -7 11 -28 11 -45 -1 -18 -156 -499
-346 -1068 -728 -2190 -697 -2093 -697 -2154 0 -93 44 -161 130 -200 44 -21
71 -26 131 -26 86 0 139 15 203 59 88 61 85 53 325 769 l148 442 66 93 c284
405 645 720 825 722 46 0 57 -4 74 -25 39 -48 20 -135 -97 -430 -29 -74 -81
-207 -115 -295 -34 -88 -84 -214 -110 -280 -151 -375 -210 -570 -210 -691 0
-109 29 -182 104 -259 53 -55 70 -66 130 -84 77 -24 221 -28 306 -10 141 30
270 108 405 244 87 88 192 215 250 302 30 47 28 73 -7 73 -17 0 -43 -26 -103
-102 -111 -141 -251 -281 -313 -312 -49 -25 -111 -33 -147 -20 -41 16 -56 100
-34 192 11 44 84 236 181 477 23 55 51 127 63 160 13 33 60 155 105 270 153
392 189 508 197 636 5 76 2 107 -12 148 -51 156 -209 241 -420 228 -241 -16
-482 -158 -752 -441 -90 -95 -199 -225 -271 -325 -18 -24 -32 -39 -32 -33 0 6
81 253 180 549 433 1291 481 1438 487 1478 7 53 -8 82 -52 101 -43 18 -287 17
-494 -2z"/>
<path d="M17313 12046 c-136 -44 -224 -159 -226 -295 -2 -176 117 -308 289
-319 135 -9 243 52 303 171 30 58 34 76 34 140 -1 58 -6 85 -27 130 -31 64
-99 130 -165 160 -56 25 -153 31 -208 13z"/>
<path d="M3015 11925 c-293 -54 -540 -197 -699 -405 -130 -171 -184 -365 -164
-591 26 -298 204 -522 727 -917 89 -67 218 -200 272 -280 123 -184 143 -447
49 -639 -48 -100 -96 -155 -188 -215 -236 -153 -608 -153 -843 1 -236 155
-383 448 -418 830 -6 63 -15 119 -20 124 -17 17 -58 -1 -70 -30 -26 -67 -301
-927 -301 -944 0 -44 57 -14 276 144 28 20 56 37 62 37 6 0 28 -20 49 -44 76
-88 246 -202 371 -250 176 -67 328 -90 555 -84 245 8 410 46 603 140 289 141
518 417 569 685 8 43 15 119 15 170 0 333 -127 520 -670 986 -215 184 -266
233 -345 332 -208 259 -146 613 136 778 109 64 182 81 349 81 132 0 152 -2
225 -27 277 -95 446 -370 481 -785 6 -77 20 -112 43 -112 22 0 25 10 161 445
34 110 77 248 96 307 60 191 50 194 -135 49 -78 -61 -145 -111 -149 -111 -4 0
-39 32 -77 71 -129 132 -282 214 -467 250 -117 23 -381 25 -493 4z"/>
<path d="M8063 11570 c-98 -14 -185 -75 -229 -162 -22 -44 -39 -91 -154 -423
-26 -77 -53 -155 -60 -172 l-12 -33 -153 0 c-85 0 -165 -4 -179 -10 -38 -14
-51 -46 -31 -76 15 -24 18 -24 164 -24 81 0 150 -3 154 -6 3 -3 -4 -31 -15
-62 -58 -166 -184 -528 -208 -602 -16 -47 -74 -214 -129 -372 -127 -366 -154
-468 -155 -578 -1 -119 28 -194 109 -276 81 -83 141 -106 290 -112 225 -8 414
72 606 259 110 107 265 296 269 330 5 30 -1 39 -23 39 -16 0 -44 -26 -102 -97
-44 -54 -114 -131 -155 -173 -184 -187 -339 -227 -387 -102 -32 83 -35 73 403
1347 36 105 69 204 74 220 4 17 20 65 35 108 l27 77 284 0 c275 0 284 1 294
21 6 11 10 30 8 42 -6 42 -37 47 -300 47 l-246 0 18 58 c10 31 49 145 86 252
58 166 68 205 68 265 1 83 -23 132 -84 170 -64 40 -173 59 -267 45z"/>
<path d="M5613 10959 c-257 -50 -510 -202 -764 -459 -197 -199 -333 -388 -436
-608 -126 -271 -173 -458 -174 -698 -2 -191 37 -310 133 -406 96 -96 210 -134
378 -125 189 9 344 80 509 232 62 57 179 197 240 288 28 42 53 77 55 77 1 0
-3 -28 -10 -62 -17 -81 -17 -209 0 -273 30 -113 83 -182 174 -227 66 -33 68
-33 207 -33 149 1 201 12 315 71 117 60 264 202 430 416 76 99 85 131 39 136
-21 2 -33 -7 -69 -55 -112 -149 -239 -286 -314 -338 -91 -62 -190 -64 -221 -4
-39 75 -15 174 185 749 50 146 104 303 120 350 15 47 60 177 100 290 39 113
98 282 130 375 32 94 65 190 74 214 9 24 16 45 16 47 0 2 -85 4 -189 4 l-189
0 -49 -37 c-27 -21 -75 -58 -106 -82 l-58 -44 -17 24 c-63 91 -142 147 -245
175 -56 15 -197 17 -264 3z m252 -163 c66 -43 91 -161 75 -344 -38 -410 -290
-996 -563 -1304 -149 -169 -320 -244 -422 -186 -65 37 -97 114 -103 242 -7
167 40 406 119 601 16 39 29 74 29 79 0 17 124 263 185 366 34 58 91 146 126
195 85 120 279 314 343 344 89 41 155 43 211 7z"/>
<path d="M10038 10950 c-275 -58 -521 -191 -741 -399 -326 -311 -507 -694
-507 -1075 0 -251 65 -429 214 -584 89 -93 192 -156 330 -200 74 -24 96 -26
256 -26 167 -1 181 1 295 32 231 63 460 195 653 378 301 285 480 630 512 987
23 265 -47 496 -201 661 -113 121 -257 199 -426 232 -102 19 -278 17 -385 -6z
m262 -130 c108 -55 156 -200 154 -470 -3 -340 -103 -707 -287 -1054 -207 -389
-447 -574 -627 -483 -100 50 -141 165 -148 411 -7 246 24 443 110 706 145 444
399 819 605 895 58 21 147 19 193 -5z"/>
<path d="M12320 10951 c-328 -73 -560 -257 -651 -517 -29 -85 -36 -221 -14
-304 38 -148 134 -283 355 -500 154 -151 197 -215 224 -337 20 -91 20 -145 0
-236 -39 -176 -157 -284 -321 -295 -132 -9 -225 32 -287 127 -20 30 -43 80
-52 110 -67 245 -105 291 -242 291 -61 0 -78 -4 -112 -26 -50 -33 -90 -110
-90 -173 0 -178 157 -333 410 -402 75 -21 107 -24 275 -24 167 0 202 3 290 24
330 80 582 279 677 536 19 52 22 79 22 205 0 134 -2 150 -26 207 -44 105 -126
211 -288 373 -170 171 -244 266 -282 362 -47 116 -45 212 6 324 78 170 284
235 424 134 49 -35 82 -96 106 -195 38 -156 127 -237 243 -221 106 14 167 84
167 191 0 75 -23 125 -84 183 -119 116 -280 171 -515 178 -122 3 -166 0 -235
-15z"/>
<path d="M16875 10960 c-216 -44 -410 -196 -616 -482 -71 -100 -79 -118 -55
-137 19 -16 41 -5 72 37 159 214 303 356 402 398 81 33 155 6 168 -63 13 -70
-12 -140 -351 -973 -183 -449 -235 -601 -235 -691 0 -101 38 -202 103 -275
144 -159 452 -159 692 1 126 83 270 235 386 407 44 64 48 101 13 106 -17 2
-39 -20 -104 -104 -191 -248 -361 -375 -456 -344 -77 26 -84 99 -25 265 21 61
93 243 159 405 341 839 364 899 381 1006 32 208 -81 388 -275 439 -61 16 -192
18 -259 5z"/>
</g>
</svg>
